<svg xmlns="http://www.w3.org/2000/svg" xmlns:xlink="http://www.w3.org/1999/xlink" viewBox="0 0 74.375 85" fill="#fff" fill-rule="evenodd" stroke="#000" stroke-linecap="round" stroke-linejoin="round"><use xlink:href="#A" x="2.188" y="2.5"/><symbol id="A"><g stroke="none"><path d="M2.886 52.8l13.924-1.532V28.732L2.886 27.2v25.6z" fill="#5294cf"/><g fill="#19486f"><path d="M67.207 28.898l-6.462 2.429-36.237-5.346L34.989 0l32.217 28.898z"/><path d="M3.504 28.966L35 12.234 45.543 26l-28.734 4.224-13.305-1.259z"/></g><g fill="#205b99"><path d="M34.99 24L0 30.624V16.556L34.99 0l17.016 18.478L34.99 24z"/><path d="M7.008 16.478L0 19.395v44.049l7.008 3.307V16.478z"/></g><path d="M70 16.566L34.99 0v24L70 30.624V16.566z" fill="#5294cf"/><g fill="#99bce3"><path d="M1.154 51.259L34.989 80l10.554-26-28.734-4.224-15.655 1.483z"/><path d="M67.64 51.142l-6.493-2.527-36.639 5.405 10.481 25.219 32.65-28.097z"/></g><path d="M67.207 51.103l-13.965-1.327V30.225l13.965-1.327v22.205zM34.99 56l15.13-16-15.13-16-18.634 16L34.99 56z" fill="#205b99"/><path d="M53.624 40L34.99 56V24l18.634 16z" fill="#5294cf"/><path d="M0 49.376L34.99 56l19.211 7.873L34.99 80 0 63.444V49.376z" fill="#205b99"/><g fill="#5294cf"><path d="M70 63.435L34.99 80V56L70 49.376v14.059z"/><path d="M62.971 66.751L70 63.434V16.566l-7.029-3.327v53.512z"/></g></g></symbol></svg>